<?xml version="1.0" encoding="UTF-8" standalone="no"?>
<svg
   xmlns:osb="http://www.openswatchbook.org/uri/2009/osb"
   xmlns:dc="http://purl.org/dc/elements/1.1/"
   xmlns:cc="http://creativecommons.org/ns#"
   xmlns:rdf="http://www.w3.org/1999/02/22-rdf-syntax-ns#"
   xmlns:svg="http://www.w3.org/2000/svg"
   xmlns="http://www.w3.org/2000/svg"
   xmlns:sodipodi="http://sodipodi.sourceforge.net/DTD/sodipodi-0.dtd"
   xmlns:inkscape="http://www.inkscape.org/namespaces/inkscape"
   width="210mm"
   height="297mm"
   viewBox="0 0 210 297"
   version="1.1"
   id="svg8"
   sodipodi:docname="couple.svg"
   inkscape:version="1.0.1 (0767f8302a, 2020-10-17)">
  <defs
     id="defs2">
    <linearGradient
       id="linearGradient853"
       osb:paint="solid">
      <stop
         style="stop-color:#140000;stop-opacity:1;"
         offset="0"
         id="stop851" />
    </linearGradient>
  </defs>
  <sodipodi:namedview
     id="base"
     pagecolor="#ffffff"
     bordercolor="#666666"
     borderopacity="1.0"
     inkscape:pageopacity="0.0"
     inkscape:pageshadow="2"
     inkscape:zoom="0.67817372"
     inkscape:cx="127.90577"
     inkscape:cy="583.60282"
     inkscape:document-units="mm"
     inkscape:current-layer="layer1"
     inkscape:document-rotation="0"
     showgrid="false"
     inkscape:window-width="1853"
     inkscape:window-height="1025"
     inkscape:window-x="67"
     inkscape:window-y="27"
     inkscape:window-maximized="1" />
  <metadata
     id="metadata5">
    <rdf:RDF>
      <cc:Work
         rdf:about="">
        <dc:format>image/svg+xml</dc:format>
        <dc:type
           rdf:resource="http://purl.org/dc/dcmitype/StillImage" />
        <dc:title />
      </cc:Work>
    </rdf:RDF>
  </metadata>
  <g
     inkscape:label="Στρώση 1"
     inkscape:groupmode="layer"
     id="layer1">
    <ellipse
       style="fill:none;fill-opacity:1;fill-rule:evenodd;stroke:#a8a9ab;stroke-width:1;stroke-opacity:1;stroke-miterlimit:4;stroke-dasharray:none"
       id="path10"
       cx="54.102028"
       cy="59.454521"
       rx="36.678696"
       ry="34.443722" />
    <path
       style="fill:none;stroke:#a8a9ab;stroke-width:1;stroke-linecap:butt;stroke-linejoin:miter;stroke-opacity:1;stroke-miterlimit:4;stroke-dasharray:none"
       d="M 54.755469,93.533188 C 54.445989,236.81558 54.445989,236.81558 54.445989,236.81558"
       id="path865" />
    <path
       style="fill:none;stroke:#a8a9ab;stroke-width:1;stroke-linecap:butt;stroke-linejoin:miter;stroke-opacity:1;stroke-miterlimit:4;stroke-dasharray:none"
       d="M 54.445989,236.81558 C 11.802665,264.38187 11.598105,264.58776 11.598105,264.58776"
       id="path867" />
    <path
       style="fill:none;stroke:#a8a9ab;stroke-width:1;stroke-linecap:butt;stroke-linejoin:miter;stroke-opacity:1;stroke-miterlimit:4;stroke-dasharray:none"
       d="m 55.128638,129.54711 c 49.957822,25.87495 50.699582,26.10731 50.699582,26.10731"
       id="path869-3"
       inkscape:transform-center-x="25.549108"
       inkscape:transform-center-y="2.5701347" />
    <path
       style="fill:none;stroke:#a8a9ab;stroke-width:1;stroke-linecap:butt;stroke-linejoin:miter;stroke-opacity:1;stroke-miterlimit:4;stroke-dasharray:none"
       d="m 54.442249,236.80537 c 43.174849,27.58657 43.381959,27.7926 43.381959,27.7926"
       id="path867-6" />
    <circle
       id="path986"
       style="fill:#000000;stroke:#a8a9ab;stroke-width:1;stroke-opacity:1;stroke-miterlimit:4;stroke-dasharray:none"
       cx="160.6776"
       cy="133.5175"
       r="0.049953096" />
    <path
       style="fill:none;stroke:#a8a9ab;stroke-width:1;stroke-linecap:butt;stroke-linejoin:miter;stroke-opacity:1;stroke-miterlimit:4;stroke-dasharray:none"
       d="M 55.120348,129.56599 C 6.1790453,154.50538 5.4523783,154.72934 5.4523783,154.72934"
       id="path869-3-7"
       inkscape:transform-center-x="-25.029247"
       inkscape:transform-center-y="2.4772053" />
    <ellipse
       style="fill:none;fill-opacity:1;fill-rule:evenodd;stroke:#a8a9ab;stroke-width:1;stroke-opacity:1;stroke-miterlimit:4;stroke-dasharray:none"
       id="path10-3"
       cx="154.47787"
       cy="60.379597"
       rx="36.678696"
       ry="34.443722" />
    <path
       style="fill:none;stroke:#a8a9ab;stroke-width:1;stroke-linecap:butt;stroke-linejoin:miter;stroke-opacity:1;stroke-miterlimit:4;stroke-dasharray:none"
       d="M 155.13131,94.458267 C 154.82183,237.74066 154.82183,237.74066 154.82183,237.74066"
       id="path865-5" />
    <path
       style="fill:none;stroke:#a8a9ab;stroke-width:1;stroke-linecap:butt;stroke-linejoin:miter;stroke-opacity:1;stroke-miterlimit:4;stroke-dasharray:none"
       d="m 154.82183,237.74066 c -42.64332,27.56629 -42.84788,27.77218 -42.84788,27.77218"
       id="path867-62" />
    <path
       style="fill:none;stroke:#a8a9ab;stroke-width:1;stroke-linecap:butt;stroke-linejoin:miter;stroke-opacity:1;stroke-miterlimit:4;stroke-dasharray:none"
       d="m 155.50448,130.47219 c 49.95782,25.87495 50.69958,26.10731 50.69958,26.10731"
       id="path869-3-9"
       inkscape:transform-center-x="25.549108"
       inkscape:transform-center-y="2.5701347" />
    <path
       style="fill:none;stroke:#a8a9ab;stroke-width:1;stroke-linecap:butt;stroke-linejoin:miter;stroke-opacity:1;stroke-miterlimit:4;stroke-dasharray:none"
       d="m 154.81809,237.73045 c 43.17485,27.58657 43.38196,27.7926 43.38196,27.7926"
       id="path867-6-1" />
    <path
       style="fill:none;stroke:#a8a9ab;stroke-width:1;stroke-linecap:butt;stroke-linejoin:miter;stroke-opacity:1;stroke-miterlimit:4;stroke-dasharray:none"
       d="m 155.49619,130.49107 c -48.9413,24.93939 -49.66797,25.16335 -49.66797,25.16335"
       id="path869-3-7-2"
       inkscape:transform-center-x="-25.029247"
       inkscape:transform-center-y="2.4772053" />
    <path
       style="fill:none;stroke:#a8a9ab;stroke-width:1;stroke-linecap:butt;stroke-linejoin:miter;stroke-opacity:1;stroke-miterlimit:4;stroke-dasharray:none"
       d="m 117.58192,58.82514 c 0.0339,50.0931 0.0339,50.0931 0.0339,50.0931"
       id="path3310" />
    <path
       style="fill:none;stroke:#a8a9ab;stroke-width:1;stroke-linecap:butt;stroke-linejoin:miter;stroke-opacity:1;stroke-miterlimit:4;stroke-dasharray:none"
       d="m 191.38348,58.386607 c 0.0339,50.093103 0.0339,50.093103 0.0339,50.093103"
       id="path3310-7" />
    <path
       id="rect3327"
       style="fill:#e20000;fill-opacity:1;stroke:none;stroke-width:1;stroke-opacity:1;stroke-miterlimit:4;stroke-dasharray:none"
       d="m 99.058153,28.438531 c -0.715169,-0.01426 -1.441215,0.212788 -2.069332,0.700376 -1.546135,1.200231 -1.89635,3.511073 -0.785339,5.181367 l 1.135448,1.706996 c 4.25303,6.394127 4.25303,6.394127 4.25303,6.394127 0,0 0,0 4.16697,-6.459979 l 1.05485,-1.635233 c 1.08851,-1.687487 0.70725,-3.992798 -0.8548,-5.16872 -1.41228,-1.063181 -3.29171,-0.828081 -4.44365,0.473848 -0.65139,-0.763126 -1.545208,-1.174597 -2.457177,-1.192782 z"
       sodipodi:nodetypes="sscccccscs" />
    <path
       id="rect3327-0"
       style="fill:#e20000;fill-opacity:1;stroke:#000000;stroke-width:0.0905797"
       d="m 120.51264,8.9175438 c -0.56796,-0.014601 -1.14455,0.2179175 -1.64337,0.7172617 -1.22787,1.2291685 -1.506,3.5957265 -0.62368,5.3062925 l 0.90172,1.748151 c 3.37757,6.548292 3.37757,6.548292 3.37757,6.548292 0,0 0,0 3.30922,-6.615731 l 0.83772,-1.674659 c 0.86445,-1.728173 0.56167,-4.089066 -0.67884,-5.2933396 -1.12157,-1.0888145 -2.61414,-0.8480461 -3.52896,0.4852726 -0.5173,-0.7815257 -1.22713,-1.2029175 -1.95138,-1.2215402 z"
       sodipodi:nodetypes="sscccccscs" />
    <path
       id="rect3327-0-9"
       style="fill:#e20000;fill-opacity:1;stroke:#000000;stroke-width:0.0910133"
       d="m 87.712596,9.7182934 c -0.569899,-0.014691 -1.148457,0.2192591 -1.648991,0.7216776 -1.232067,1.236737 -1.511145,3.617865 -0.625812,5.338962 l 0.904802,1.758915 c 3.389118,6.588608 3.389118,6.588608 3.389118,6.588608 0,0 0,0 3.320534,-6.656463 l 0.840583,-1.684969 c 0.867403,-1.738813 0.563589,-4.114242 -0.681162,-5.32593 -1.125406,-1.0955181 -2.623071,-0.8532674 -3.541021,0.48826 -0.519071,-0.786337 -1.231329,-1.2103233 -1.958051,-1.2290606 z"
       sodipodi:nodetypes="sscccccscs" />
  </g>
</svg>
