<?xml version="1.0" encoding="UTF-8" standalone="no"?>
<svg
   xmlns:osb="http://www.openswatchbook.org/uri/2009/osb"
   xmlns:dc="http://purl.org/dc/elements/1.1/"
   xmlns:cc="http://creativecommons.org/ns#"
   xmlns:rdf="http://www.w3.org/1999/02/22-rdf-syntax-ns#"
   xmlns:svg="http://www.w3.org/2000/svg"
   xmlns="http://www.w3.org/2000/svg"
   xmlns:sodipodi="http://sodipodi.sourceforge.net/DTD/sodipodi-0.dtd"
   xmlns:inkscape="http://www.inkscape.org/namespaces/inkscape"
   width="210mm"
   height="297mm"
   viewBox="0 0 210 297"
   version="1.1"
   id="svg8"
   sodipodi:docname="mother_teresa.svg"
   inkscape:version="1.0.1 (0767f8302a, 2020-10-17)">
  <defs
     id="defs2">
    <linearGradient
       id="linearGradient853"
       osb:paint="solid">
      <stop
         style="stop-color:#140000;stop-opacity:1;"
         offset="0"
         id="stop851" />
    </linearGradient>
  </defs>
  <sodipodi:namedview
     id="base"
     pagecolor="#ffffff"
     bordercolor="#666666"
     borderopacity="1.0"
     inkscape:pageopacity="0.0"
     inkscape:pageshadow="2"
     inkscape:zoom="0.47954124"
     inkscape:cx="-96.571922"
     inkscape:cy="532.57381"
     inkscape:document-units="mm"
     inkscape:current-layer="layer1"
     inkscape:document-rotation="0"
     showgrid="false"
     inkscape:window-width="1853"
     inkscape:window-height="1025"
     inkscape:window-x="67"
     inkscape:window-y="27"
     inkscape:window-maximized="1" />
  <metadata
     id="metadata5">
    <rdf:RDF>
      <cc:Work
         rdf:about="">
        <dc:format>image/svg+xml</dc:format>
        <dc:type
           rdf:resource="http://purl.org/dc/dcmitype/StillImage" />
        <dc:title />
      </cc:Work>
    </rdf:RDF>
  </metadata>
  <g
     inkscape:label="Στρώση 1"
     inkscape:groupmode="layer"
     id="layer1">
    <path
       id="path10"
       style="fill:none;fill-opacity:1;fill-rule:evenodd;stroke:#a8a9ab;stroke-width:1;stroke-opacity:1;stroke-miterlimit:4;stroke-dasharray:none"
       d="m 103.50774,17.53231 c -20.257229,-1.06e-4 -36.678996,15.421009 -36.678895,34.443893 -2.1e-5,1.827321 0.154808,3.651744 0.463021,5.455996 26.421336,21.875737 49.686294,14.559275 72.431244,0 0.30821,-1.804252 0.46304,-3.628675 0.46302,-5.455996 1e-4,-19.022694 -16.42135,-34.44373 -36.67839,-34.443893 z m 36.21537,39.899889 C 136.86968,74.135213 121.522,86.419968 103.50774,86.420095 85.493291,86.420206 70.145326,74.135395 67.291866,57.432199 v 0 l -0.143661,43.487271 h 72.914935 z"
       sodipodi:nodetypes="cccccccsccccc" />
    <path
       style="fill:none;stroke:#a8a9ab;stroke-width:1;stroke-linecap:butt;stroke-linejoin:miter;stroke-opacity:1;stroke-miterlimit:4;stroke-dasharray:none"
       d="M 104.07407,92.371141 C 103.76459,235.65353 103.76459,235.65353 103.76459,235.65353"
       id="path865" />
    <path
       style="fill:none;stroke:#a8a9ab;stroke-width:1;stroke-linecap:butt;stroke-linejoin:miter;stroke-opacity:1;stroke-miterlimit:4;stroke-dasharray:none"
       d="M 103.76459,235.65353 C 61.121263,263.21982 60.916703,263.42571 60.916703,263.42571"
       id="path867" />
    <path
       style="fill:none;stroke:#a8a9ab;stroke-width:1;stroke-linecap:butt;stroke-linejoin:miter;stroke-opacity:1;stroke-miterlimit:4;stroke-dasharray:none"
       d="m 104.44724,128.38506 c 49.95782,25.87495 50.69958,26.10731 50.69958,26.10731"
       id="path869-3"
       inkscape:transform-center-x="25.549108"
       inkscape:transform-center-y="2.5701347" />
    <path
       style="fill:none;stroke:#a8a9ab;stroke-width:1;stroke-linecap:butt;stroke-linejoin:miter;stroke-opacity:1;stroke-miterlimit:4;stroke-dasharray:none"
       d="m 103.76085,235.64332 c 43.17485,27.58657 43.38196,27.7926 43.38196,27.7926"
       id="path867-6" />
    <circle
       id="path986"
       style="fill:#000000;stroke:#a8a9ab;stroke-width:1;stroke-miterlimit:4;stroke-dasharray:none;stroke-opacity:1"
       cx="164.82544"
       cy="147.09544"
       r="0.049953096" />
    <path
       style="fill:none;stroke:#a8a9ab;stroke-width:1;stroke-linecap:butt;stroke-linejoin:miter;stroke-opacity:1;stroke-miterlimit:4;stroke-dasharray:none"
       d="M 104.43895,128.40394 C 55.497643,153.34333 54.770976,153.56729 54.770976,153.56729"
       id="path869-3-7"
       inkscape:transform-center-x="-25.029247"
       inkscape:transform-center-y="2.4772053" />
    <path
       style="fill:none;stroke:#a8a9ab;stroke-width:1;stroke-linecap:butt;stroke-linejoin:miter;stroke-opacity:1;stroke-miterlimit:4;stroke-dasharray:none"
       d="M 68.280058,42.667957 C 103.3761,20.616799 138.57983,42.446039 138.57983,42.446039"
       id="path2619"
       sodipodi:nodetypes="cc" />
    <path
       style="fill:#dbdddb;fill-opacity:1;stroke:#a8a9ab;stroke-width:1;stroke-miterlimit:4;stroke-dasharray:none;stroke-opacity:1"
       d="m 69.223589,40.77929 c 4.139004,-10.886402 14.268386,-19.368542 26.301408,-22.024264 4.463659,-0.985141 12.202653,-0.912418 16.552473,0.155546 11.16447,2.741084 20.44452,10.175593 24.86165,19.917374 0.60647,1.337548 1.10268,2.523133 1.10268,2.634633 0,0.111501 -1.05473,-0.329697 -2.34384,-0.98044 -3.51587,-1.774801 -10.55752,-4.414639 -14.52688,-5.445966 -7.30992,-1.899277 -10.0741,-2.232408 -18.65905,-2.248734 -6.96707,-0.01325 -8.722742,0.105517 -12.305719,0.832442 -5.882282,1.193415 -10.569228,2.801576 -16.042491,5.504417 -2.598587,1.28325 -4.85362,2.392119 -5.011187,2.464154 -0.157565,0.07203 -0.125635,-0.292089 0.07096,-0.809162 z"
       id="path3204" />
    <path
       style="fill:#dbdddb;fill-opacity:1;stroke:#a8a9ab;stroke-width:1;stroke-miterlimit:4;stroke-dasharray:none;stroke-opacity:1"
       d="M 100.482,86.04033 C 89.643627,85.114066 79.911729,79.8543 73.706257,71.568926 71.239735,68.275695 69.45086,64.636809 68.288141,60.547528 c -0.771213,-2.712358 -0.880848,-2.62345 1.229283,-0.996873 8.706067,6.711 17.533972,10.537912 26.955536,11.68528 2.203624,0.268359 8.07744,0.231899 10.42352,-0.0647 9.32432,-1.178817 18.47498,-4.721799 29.78816,-11.533463 1.38967,-0.836721 2.55023,-1.49775 2.57903,-1.468953 0.08,0.07997 -0.31962,1.732264 -0.77942,3.222934 -2.75066,8.917615 -9.18552,16.373264 -17.87878,20.714954 -6.19967,3.096318 -13.41573,4.506873 -20.12347,3.933623 z"
       id="path1575" />
    <path
       style="fill:#dbdddb;fill-opacity:1;stroke:#a8a9ab;stroke-width:1;stroke-miterlimit:4;stroke-dasharray:none;stroke-opacity:1"
       d="m 67.437089,89.742679 c 5.8e-5,-5.971804 0.04002,-15.053667 0.0888,-20.181919 l 0.0887,-9.324091 0.442561,1.46158 c 0.622109,2.054542 1.125071,3.274991 2.236429,5.426747 1.783296,3.452722 3.525177,5.809858 6.419322,8.686707 5.909905,5.874591 13.201956,9.389864 21.927798,10.570718 2.399251,0.324689 7.353611,0.324879 9.755341,5.29e-4 14.89344,-2.012302 26.71788,-11.694451 30.72038,-25.154662 l 0.30824,-1.036569 0.0867,5.604859 c 0.0477,3.082671 0.12638,12.174675 0.17483,20.204454 l 0.0881,14.599598 H 103.60565 67.436984 Z"
       id="path1585" />
  </g>
</svg>
