<?xml version="1.0" encoding="UTF-8" standalone="no"?>
<svg
   xmlns:dc="http://purl.org/dc/elements/1.1/"
   xmlns:cc="http://creativecommons.org/ns#"
   xmlns:rdf="http://www.w3.org/1999/02/22-rdf-syntax-ns#"
   xmlns:svg="http://www.w3.org/2000/svg"
   xmlns="http://www.w3.org/2000/svg"
   xmlns:sodipodi="http://sodipodi.sourceforge.net/DTD/sodipodi-0.dtd"
   xmlns:inkscape="http://www.inkscape.org/namespaces/inkscape"
   width="210mm"
   height="297mm"
   viewBox="0 0 210 297"
   version="1.1"
   id="svg8"
   inkscape:version="1.0.1 (0767f8302a, 2020-10-17)"
   sodipodi:docname="settings.svg">
  <defs
     id="defs2" />
  <sodipodi:namedview
     id="base"
     pagecolor="#ffffff"
     bordercolor="#666666"
     borderopacity="1.0"
     inkscape:pageopacity="0.0"
     inkscape:pageshadow="2"
     inkscape:zoom="0.46458895"
     inkscape:cx="119.58659"
     inkscape:cy="763.24779"
     inkscape:document-units="mm"
     inkscape:current-layer="layer1"
     inkscape:document-rotation="0"
     showgrid="false"
     inkscape:window-width="1853"
     inkscape:window-height="1025"
     inkscape:window-x="67"
     inkscape:window-y="27"
     inkscape:window-maximized="1" />
  <metadata
     id="metadata5">
    <rdf:RDF>
      <cc:Work
         rdf:about="">
        <dc:format>image/svg+xml</dc:format>
        <dc:type
           rdf:resource="http://purl.org/dc/dcmitype/StillImage" />
        <dc:title />
      </cc:Work>
    </rdf:RDF>
  </metadata>
  <g
     inkscape:label="Στρώση 1"
     inkscape:groupmode="layer"
     id="layer1">
    <path
       id="path951"
       style="color:#000000;font-style:normal;font-variant:normal;font-weight:normal;font-stretch:normal;font-size:medium;line-height:normal;font-family:sans-serif;font-variant-ligatures:normal;font-variant-position:normal;font-variant-caps:normal;font-variant-numeric:normal;font-variant-alternates:normal;font-variant-east-asian:normal;font-feature-settings:normal;font-variation-settings:normal;text-indent:0;text-align:start;text-decoration:none;text-decoration-line:none;text-decoration-style:solid;text-decoration-color:#000000;letter-spacing:normal;word-spacing:normal;text-transform:none;writing-mode:lr-tb;direction:ltr;text-orientation:mixed;dominant-baseline:auto;baseline-shift:baseline;text-anchor:start;white-space:normal;shape-padding:0;shape-margin:0;inline-size:0;clip-rule:nonzero;display:inline;overflow:visible;visibility:visible;opacity:1;isolation:auto;mix-blend-mode:normal;color-interpolation:sRGB;color-interpolation-filters:linearRGB;solid-color:#000000;solid-opacity:1;vector-effect:none;fill:#c5c3c7;fill-opacity:1;fill-rule:nonzero;stroke:none;stroke-width:5.5689;stroke-linecap:butt;stroke-linejoin:miter;stroke-miterlimit:4;stroke-dasharray:none;stroke-dashoffset:0;stroke-opacity:1;color-rendering:auto;image-rendering:auto;shape-rendering:auto;text-rendering:auto;enable-background:accumulate;stop-color:#000000;stop-opacity:1"
       d="m 106.55252,53.086157 c -4.56355,0.01626 -9.183745,0.376458 -13.831143,1.102399 -47.262915,7.382594 -80.299724,49.973054 -76.568252,96.887684 0.182341,2.39635 0.457304,4.80415 0.834354,7.21931 2.48381,15.90937 9.149154,30.87357 19.314525,43.36127 l 0.686472,0.84276 0.08066,-0.19495 c 2.809692,3.34867 5.852015,6.4817 9.096397,9.38041 l -0.01675,0.29493 0.234414,0.20836 c 8.60312,7.65317 18.581946,13.60189 29.40578,17.52988 l 0.294919,0.10666 0.267193,-0.16385 c 0.01673,-0.01 0.03286,-0.0217 0.04959,-0.0318 6.804486,2.41772 13.945363,4.03906 21.29328,4.77003 l 0.347854,0.34785 0.233584,0.0218 c 7.509623,0.70696 15.077463,0.47628 22.530113,-0.68648 40.15098,-6.26493 71.26943,-38.42723 76.20696,-78.76296 l 0.14877,-1.21078 -0.11008,0.0563 c 0.87277,-7.76173 0.75344,-15.76149 -0.47556,-23.84761 l 0.0295,-0.0295 -0.052,-0.32938 c -0.38164,-2.3925 -0.86294,-4.7591 -1.43007,-7.09832 -9.43069,-39.678206 -44.14667,-67.802051 -84.02705,-69.674944 -1.50757,-0.07072 -3.02197,-0.104386 -4.54316,-0.09918 z m 0.40331,1.594771 c 2.40651,0.0048 4.80794,0.163913 7.20587,0.36215 l -6.99749,6.997486 18.17011,18.170952 c -2.29245,3.927009 -4.08045,8.124604 -5.32374,12.498543 H 94.460665 v 28.815901 h 25.325585 c 1.19683,4.47257 2.96104,8.77139 5.25146,12.79511 l -17.8735,17.87437 20.37657,20.37574 17.90293,-17.90208 c 4.01688,2.27189 8.30545,4.02089 12.76571,5.20526 v 25.40035 h 28.07317 c -12.70306,24.4136 -36.44075,42.67355 -65.72333,47.24232 -7.52022,1.17334 -14.96672,1.37168 -22.213334,0.69572 l -4.784298,-4.78432 c 1.159726,-2.13783 2.069497,-4.39771 2.713951,-6.74289 H 111.71073 V 204.35062 H 96.141991 c -0.667228,-2.28877 -1.588726,-4.49192 -2.748427,-6.57485 L 104.42,186.74849 92.161778,174.49111 81.152156,185.50075 C 79.065115,184.3311 76.856,183.40131 74.560509,182.72712 V 167.19954 H 57.225576 v 15.36122 c -2.365882,0.64533 -4.646124,1.5597 -6.801721,2.72909 L 39.624297,174.49111 27.758473,186.3561 c -2.221356,-4.13995 -4.137459,-8.48669 -5.703525,-13.02031 -0.01763,-0.0512 -0.03541,-0.10244 -0.05294,-0.15381 -0.181536,-0.52865 -0.35557,-1.06117 -0.527668,-1.59476 -0.06841,-0.21324 -0.139882,-0.42564 -0.206699,-0.63942 -0.07606,-0.24208 -0.146027,-0.48711 -0.220143,-0.73017 -1.200352,-3.95848 -2.133639,-8.00674 -2.77614,-12.1221 -7.633232,-48.89407 25.801061,-94.703568 74.694531,-102.34082 4.627886,-0.722998 9.305941,-1.082188 13.989941,-1.073831 z m 9.2569,0.147962 c 17.54531,1.851121 33.87,8.848022 47.15072,19.664069 -16.1453,4.691017 -26.39132,20.675398 -23.78291,37.385481 2.85717,18.30153 20.02482,30.83402 38.32658,27.97821 6.57353,-1.02563 12.68416,-3.98165 17.56346,-8.47716 1.13105,7.95794 1.18472,15.82603 0.25796,23.45269 -3.04981,1.52291 -6.23886,2.75025 -9.52492,3.65924 l -0.47642,0.13186 v 25.35247 h -26.21876 v -25.09199 l -0.48903,-0.1252 c -4.68529,-1.19703 -9.18385,-3.03083 -13.37068,-5.45062 l -0.43189,-0.24955 -17.67606,17.67607 -18.53898,-18.539 17.65002,-17.65001 -0.25207,-0.43271 c -2.43884,-4.19284 -4.28869,-8.70118 -5.49852,-13.39842 l -0.12601,-0.48734 H 95.759695 v -26.2179 h 25.224735 l 0.13105,-0.477248 c 1.26142,-4.598827 3.1388,-9.006358 5.58169,-13.101803 l 0.2588,-0.434407 -17.95418,-17.955025 z m 48.08002,20.758045 c 16.47181,13.788638 27.43684,33.030465 30.90475,54.229715 -4.78802,4.65251 -10.88853,7.72608 -17.49036,8.75611 -17.60798,2.74755 -34.09387,-9.28654 -36.84271,-26.8943 -2.53927,-16.267187 7.57372,-31.791598 23.42832,-36.091525 z m 31.23664,80.739195 c -0.0114,0.0823 -0.0219,0.16483 -0.0336,0.24702 -0.0436,0.31445 -0.0911,0.62766 -0.13772,0.94107 -1.41079,9.24872 -4.25396,18.11054 -8.3318,26.3078 v -24.23663 c 2.92471,-0.83829 5.76109,-1.94315 8.50319,-3.25926 z M 58.524586,168.49864 h 14.73691 v 15.18307 l 0.476408,0.13187 c 2.526332,0.69863 4.951971,1.71944 7.21764,3.03747 l 0.432718,0.25205 10.773516,-10.77434 10.420632,10.41977 -10.788654,10.78948 0.249549,0.43188 c 1.307368,2.26211 2.318426,4.68289 3.009727,7.2025 l 0.131058,0.47725 h 15.22761 v 14.73692 H 95.302555 l -0.126014,0.48735 c -0.663254,2.57558 -1.660114,5.05398 -2.965189,7.37139 l -0.241991,0.42937 4.32135,4.32133 c -6.399866,-0.74733 -12.630242,-2.18193 -18.605372,-4.2348 5.932163,-4.34892 9.009042,-11.6768 7.865457,-19.03136 l -8.32e-4,-0.008 v -0.002 l -8.41e-4,-0.005 c -1.511903,-9.67423 -9.872491,-16.80203 -19.664071,-16.76442 -0.999217,0.003 -1.9964,0.0828 -2.983665,0.23695 -8.728253,1.36342 -15.437311,8.32388 -16.587969,16.96271 -3.102271,-2.82917 -6.010392,-5.87909 -8.698965,-9.13086 0.51262,-1.1737 1.094166,-2.31592 1.750213,-3.4164 l 0.258792,-0.43441 -10.419775,-10.4206 10.420614,-10.42062 10.553372,10.55422 0.429366,-0.242 c 2.334745,-1.31484 4.832378,-2.31712 7.428528,-2.98031 l 0.489023,-0.12439 z m -29.80404,19.60439 9.296382,9.2964 c -0.473807,0.8249 -0.887234,1.68146 -1.283885,2.5459 -2.966886,-3.70401 -5.647565,-7.66247 -8.012497,-11.8423 z m 37.169545,6.14718 c 9.158646,-0.0352 16.960603,6.6158 18.375143,15.66453 0,0 0,8.4e-4 0,8.4e-4 v 0.002 l 8.41e-4,0.005 c 1.120046,7.18296 -2.077514,14.31557 -8.115855,18.29869 -10.546183,-3.83939 -20.254758,-9.62055 -28.624342,-16.98034 0.707601,-8.49716 7.107548,-15.44503 15.575469,-16.76777 0.922568,-0.14406 1.855022,-0.21834 2.788744,-0.22183 z" />
  </g>
</svg>
